<mxfile host="app.diagrams.net" modified="2023-05-03T20:30:01.021Z" agent="Mozilla/5.0 (Windows NT 10.0; Win64; x64) AppleWebKit/537.36 (KHTML, like Gecko) Chrome/112.0.0.0 Safari/537.36" version="21.2.7" etag="6hPebYUM7Q30tyOQe_7Z" type="github">
  <diagram name="Page-1" id="wwFFc8fJAIEY2MvnJ9u3">
    <mxGraphModel>
      <root>
        <mxCell id="0" />
        <mxCell id="1" parent="0" />
      </root>
    </mxGraphModel>
  </diagram>
</mxfile>
